# Blender 5.0.1
# www.blender.org
mtllib Petal_Ramp_S.mtl
o Petal_Ramp
v -4.982418 -0.972545 0.798434
v 4.982417 -0.953653 0.820905
v -3.945242 -5.732993 -5.768225
v -5.021667 -5.041011 -4.945137
v 4.008635 -5.694382 -5.722298
v 5.075284 -4.991950 -4.886779
v -4.982418 -0.009447 -0.011256
v 4.982417 0.009445 0.011215
v -3.945242 -5.215309 -6.203450
v -5.021667 -4.523327 -5.380362
v 4.008635 -5.176697 -6.157523
v 5.075284 -4.474265 -5.322004
vn 0.0004 -0.8103 0.5860
vn -0.0000 0.7654 -0.6435
vn -0.7067 -0.4553 -0.5415
vn 0.7152 -0.4497 -0.5350
vn -1.0000 0.0036 0.0043
vn 0.0075 -0.6435 -0.7654
vn 0.9999 0.0086 0.0102
vn -0.0029 0.6435 0.7654
vt 0.000000 0.000000
vt 0.000000 0.847524
vt 0.107055 1.000000
vt 0.892945 1.000000
vt 1.000000 0.846524
vt 1.000000 0.000000
s 1
usemtl Mat_Petals
f 1/1/1 4/2/1 3/3/1 5/4/1 6/5/1 2/6/1
f 7/1/2 8/6/2 12/5/2 11/4/2 9/3/2 10/2/2
f 3/3/3 4/2/3 10/2/3 9/3/3
f 6/5/4 5/4/4 11/4/4 12/5/4
f 4/2/5 1/1/5 7/1/5 10/2/5
f 5/4/6 3/3/6 9/3/6 11/4/6
f 2/6/7 6/5/7 12/5/7 8/6/7
f 1/1/8 2/6/8 8/6/8 7/1/8
