# Blender 5.0.1
# www.blender.org
mtllib Petal_Ramp.mtl
o Petal_Ramp
v -4.940395 -0.963801 -11.273066
v 5.024440 -0.944909 -11.250594
v -3.903219 -5.724249 -17.839725
v -4.979644 -5.032267 -17.016636
v 4.050658 -5.685638 -17.793798
v 5.117307 -4.983205 -16.958279
v -4.940395 -0.000703 -12.082755
v 5.024440 0.018189 -12.060284
v -3.903219 -5.206565 -18.274948
v -4.979644 -4.514583 -17.451860
v 4.050658 -5.167953 -18.229023
v 5.117307 -4.465521 -17.393503
vn 0.0004 -0.8103 0.5860
vn -0.0000 0.7654 -0.6435
vn -0.7067 -0.4553 -0.5415
vn 0.7152 -0.4497 -0.5350
vn -1.0000 0.0036 0.0043
vn 0.0075 -0.6435 -0.7654
vn 0.9999 0.0086 0.0102
vn -0.0029 0.6435 0.7654
vt 0.000000 0.000000
vt 0.000000 0.847524
vt 0.107055 1.000000
vt 0.892945 1.000000
vt 1.000000 0.846524
vt 1.000000 0.000000
s 1
usemtl Mat_Petals
f 1/1/1 4/2/1 3/3/1 5/4/1 6/5/1 2/6/1
f 7/1/2 8/6/2 12/5/2 11/4/2 9/3/2 10/2/2
f 3/3/3 4/2/3 10/2/3 9/3/3
f 6/5/4 5/4/4 11/4/4 12/5/4
f 4/2/5 1/1/5 7/1/5 10/2/5
f 5/4/6 3/3/6 9/3/6 11/4/6
f 2/6/7 6/5/7 12/5/7 8/6/7
f 1/1/8 2/6/8 8/6/8 7/1/8
